<svg width="24" height="24" viewBox="0 0 24 24" fill="none" xmlns="http://www.w3.org/2000/svg">
    <path
        d="M14.709 16.122H14.71L18.295 19.706C18.49 19.901 18.746 19.999 19.002 19.999C19.258 19.999 19.514 19.901 19.709 19.706C20.1 19.315 20.1 18.682 19.709 18.292L16.124 14.707C15.401 13.983 15.002 13.022 15.002 11.999C15.002 10.976 15.4 10.016 16.124 9.292L19.708 5.707C20.099 5.316 20.099 4.684 19.708 4.293C19.317 3.902 18.685 3.902 18.294 4.293L14.708 7.879C13.264 9.325 10.742 9.325 9.296 7.88C9.296 7.88 9.296 7.88 9.295 7.879H9.294L5.709 4.294C5.318 3.903 4.686 3.903 4.295 4.294C3.904 4.685 3.904 5.317 4.295 5.708L7.88 9.294C8.603 10.018 9.002 10.979 9.002 12.001C9.002 13.023 8.604 13.985 7.88 14.709V14.71L4.296 18.294C3.905 18.684 3.905 19.317 4.296 19.708C4.687 20.099 5.319 20.099 5.71 19.708L9.296 16.123C10.019 15.4 10.98 15.001 12.003 15.001C13.01 15.001 13.996 15.409 14.708 16.121C14.708 16.121 14.708 16.121 14.709 16.122ZM12.002 13C11.627 13 11.257 13.037 10.896 13.106C10.965 12.745 11.002 12.375 11.002 12C11.002 11.625 10.965 11.255 10.896 10.894C11.257 10.963 11.626 11 12.002 11C12.378 11 12.747 10.963 13.108 10.894C13.039 11.255 13.002 11.624 13.002 12C13.002 12.376 13.039 12.745 13.108 13.106C12.747 13.037 12.377 13 12.002 13ZM14.16 3.751C14.728 1.543 16.719 0 19.002 0C21.759 0 24.002 2.243 24.002 5C24.002 7.283 22.46 9.274 20.251 9.842C20.168 9.863 20.084 9.874 20.001 9.874C19.555 9.874 19.149 9.575 19.033 9.123C18.895 8.588 19.217 8.043 19.752 7.906C21.076 7.565 22.001 6.37 22.001 5C22.001 3.346 20.655 2 19.001 2C17.631 2 16.436 2.925 16.095 4.249C15.958 4.784 15.416 5.108 14.878 4.968C14.343 4.831 14.021 4.285 14.159 3.751H14.16ZM24.002 19C24.002 21.757 21.759 24 19.002 24C16.719 24 14.728 22.458 14.16 20.249C14.022 19.714 14.344 19.169 14.879 19.032C15.417 18.894 15.959 19.217 16.096 19.751C16.437 21.075 17.632 22 19.002 22C20.656 22 22.002 20.654 22.002 19C22.002 17.63 21.077 16.436 19.753 16.095C19.218 15.958 18.896 15.412 19.034 14.878C19.171 14.343 19.715 14.021 20.251 14.159C22.459 14.727 24.002 16.717 24.002 19ZM9.844 20.25C9.276 22.458 7.284 24 5.002 24C2.245 24 0.002 21.757 0.002 19C0.002 16.717 1.544 14.726 3.753 14.158C4.291 14.02 4.834 14.342 4.97 14.877C5.108 15.412 4.786 15.957 4.251 16.094C2.927 16.435 2.002 17.63 2.002 18.999C2.002 20.653 3.348 21.999 5.002 21.999C6.372 21.999 7.566 21.074 7.908 19.749C8.046 19.214 8.587 18.892 9.126 19.03C9.661 19.168 9.982 19.713 9.845 20.248L9.844 20.25ZM0.002 5C0.002 2.243 2.245 0 5.002 0C7.284 0 9.275 1.542 9.844 3.75C9.982 4.285 9.66 4.83 9.125 4.968C8.59 5.107 8.045 4.784 7.907 4.249C7.566 2.924 6.371 1.999 5.001 1.999C3.347 1.999 2.001 3.345 2.001 4.999C2.001 6.369 2.926 7.564 4.25 7.905C4.785 8.042 5.107 8.588 4.969 9.122C4.853 9.573 4.447 9.873 4.001 9.873C3.918 9.873 3.835 9.863 3.751 9.841C1.543 9.273 0 7.282 0 4.999L0.002 5Z"
        fill="#000" />
</svg>
