<svg xmlns="http://www.w3.org/2000/svg" viewBox="0 0 40 40" fill="none">
    <path fill="currentColor"
        d="M20.833 5a4.167 4.167 0 1 0 0 8.333 4.167 4.167 0 0 0 0-8.333ZM10 10a3.333 3.333 0 1 0 0 6.667A3.333 3.333 0 0 0 10 10Zm20 1.667A1.667 1.667 0 1 0 30 15a1.667 1.667 0 0 0 0-3.333ZM7.5 20a2.5 2.5 0 1 0 0 5 2.5 2.5 0 0 0 0-5Zm25.833 0a1.667 1.667 0 1 0 0 3.333 1.667 1.667 0 0 0 0-3.333ZM12.5 28.333a2.5 2.5 0 1 0 0 5 2.5 2.5 0 0 0 0-5Zm17.5 0a1.666 1.666 0 1 0 0 3.333 1.666 1.666 0 0 0 0-3.333ZM20.833 30a2.5 2.5 0 1 0 0 5 2.5 2.5 0 0 0 0-5Z" />
</svg>
