<svg width="33" height="30" viewBox="0 0 33 30" fill="none" xmlns="http://www.w3.org/2000/svg">
    <path
        d="M26.125 18.975V8.75C26.125 5.9875 23.6637 3.75 20.625 3.75C17.5863 3.75 15.125 5.9875 15.125 8.75V21.25C15.125 22.625 13.8875 23.75 12.375 23.75C10.8625 23.75 9.625 22.625 9.625 21.25V11.025C11.22 10.5 12.375 9.125 12.375 7.5C12.375 5.425 10.5325 3.75 8.25 3.75C5.9675 3.75 4.125 5.425 4.125 7.5C4.125 9.125 5.28 10.5 6.875 11.025V21.25C6.875 24.0125 9.33625 26.25 12.375 26.25C15.4137 26.25 17.875 24.0125 17.875 21.25V8.75C17.875 7.375 19.1125 6.25 20.625 6.25C22.1375 6.25 23.375 7.375 23.375 8.75V18.975C21.78 19.4875 20.625 20.8625 20.625 22.5C20.625 24.575 22.4675 26.25 24.75 26.25C27.0325 26.25 28.875 24.575 28.875 22.5C28.875 20.875 27.72 19.5 26.125 18.975ZM8.25 8.75C7.49375 8.75 6.875 8.1875 6.875 7.5C6.875 6.8125 7.49375 6.25 8.25 6.25C9.00625 6.25 9.625 6.8125 9.625 7.5C9.625 8.1875 9.00625 8.75 8.25 8.75ZM24.75 23.75C23.9937 23.75 23.375 23.1875 23.375 22.5C23.375 21.8125 23.9937 21.25 24.75 21.25C25.5063 21.25 26.125 21.8125 26.125 22.5C26.125 23.1875 25.5063 23.75 24.75 23.75Z"
        fill="currentColor" />
</svg>
