<svg fill="none" xmlns="http://www.w3.org/2000/svg" viewBox="0 0 18 18">
    <path
        d="M15.803 3.922a83.495 83.495 0 0 0-3.63-.277v-.007l-.165-.975c-.113-.69-.278-1.725-2.033-1.725H8.01c-1.747 0-1.912.99-2.032 1.717l-.158.96c-.698.045-1.395.09-2.093.157l-1.53.15a.564.564 0 0 0-.51.615c.03.308.3.533.616.503l1.53-.15c3.93-.39 7.89-.24 11.864.158h.06a.568.568 0 0 0 .563-.51.575.575 0 0 0-.518-.616Zm-1.38 2.183a.948.948 0 0 0-.683-.293H4.26a.936.936 0 0 0-.938.998l.466 7.695c.082 1.14.187 2.565 2.805 2.565h4.815c2.617 0 2.722-1.418 2.805-2.565l.465-7.688a.972.972 0 0 0-.256-.712Zm-4.178 7.207H7.748a.567.567 0 0 1-.563-.562c0-.307.255-.563.563-.563h2.497c.308 0 .563.256.563.563a.567.567 0 0 1-.563.563Zm.63-3h-3.75a.567.567 0 0 1-.563-.562c0-.307.255-.563.563-.563h3.75c.307 0 .563.256.563.563a.567.567 0 0 1-.563.563Z"
        fill="currentColor" />
</svg>